<?xml version="1.0" standalone="no"?>
<!DOCTYPE svg PUBLIC "-//W3C//DTD SVG 20010904//EN"
 "http://www.w3.org/TR/2001/REC-SVG-20010904/DTD/svg10.dtd">
<svg version="1.0" xmlns="http://www.w3.org/2000/svg"
 width="1083.000000pt" height="1083.000000pt" viewBox="0 0 1083.000000 1083.000000"
 preserveAspectRatio="xMidYMid meet">

<g transform="translate(0.000000,1083.000000) scale(0.100000,-0.100000)"
fill="#000000" stroke="none">
<path d="M0 5415 l0 -5415 1845 0 c1015 0 1845 1 1845 3 1 1 12 85 25 187 48
365 119 678 176 781 31 54 17 68 -46 44 -25 -9 -48 -15 -51 -12 -10 10 164
277 201 307 17 14 20 36 5 45 -6 4 -36 -8 -68 -26 -31 -17 -52 -26 -46 -18
119 152 144 178 228 244 202 157 430 284 635 354 165 57 396 81 597 62 140
-13 387 -59 472 -87 174 -60 366 -181 521 -330 62 -59 117 -116 122 -125 9
-17 7 -17 -33 1 -68 30 -79 7 -24 -50 60 -62 251 -350 276 -416 12 -31 10 -30
-74 43 -26 24 -54 43 -61 43 -28 0 -24 -20 12 -69 44 -57 133 -232 169 -329
14 -37 28 -74 31 -82 4 -8 8 -19 8 -25 1 -5 4 -17 8 -25 21 -58 30 -126 53
-448 l6 -72 1999 0 1999 0 0 5415 0 5415 -5415 0 -5415 0 0 -5415z m5981 942
c63 -37 114 -93 146 -162 26 -55 28 -70 28 -175 0 -108 -2 -119 -31 -180 -73
-154 -208 -227 -346 -186 -78 22 -139 79 -185 174 -37 73 -38 80 -38 181 0 98
2 111 32 173 39 84 103 154 168 185 67 32 161 28 226 -10z m-2370 -31 c49 -9
117 -69 145 -130 19 -41 24 -67 23 -131 -1 -166 -88 -275 -219 -275 -87 0
-159 52 -201 145 -25 53 -25 173 -2 239 32 90 138 174 203 161 8 -2 31 -6 51
-9z m1089 -661 c383 -58 630 -145 852 -304 l87 -61 168 0 c349 0 725 -58 1078
-165 243 -74 549 -227 730 -364 116 -88 275 -252 320 -331 7 -12 6 -13 -6 -3
-50 41 -321 93 -480 93 -124 0 -169 -7 -169 -26 0 -16 -6 -16 127 -14 75 1
112 -3 136 -15 45 -21 108 -75 102 -86 -4 -5 0 -7 7 -4 7 3 44 -27 84 -67 120
-123 200 -230 264 -358 l30 -60 -32 19 c-18 10 -70 42 -116 70 -103 64 -279
148 -352 167 -83 21 -88 4 -17 -58 91 -80 224 -266 272 -382 l16 -38 -28 20
c-56 39 -276 132 -314 132 -11 0 -53 26 -92 59 -82 66 -165 121 -184 121 -27
0 -11 -36 25 -56 125 -72 324 -259 403 -379 57 -87 103 -174 96 -181 -3 -4
-45 17 -94 45 -89 51 -236 111 -274 111 -16 0 -19 -4 -14 -22 4 -13 15 -32 25
-43 22 -25 90 -137 90 -149 0 -5 -6 -4 -12 2 -19 15 -166 72 -186 72 -9 -1
-32 -21 -50 -46 -19 -25 -38 -42 -44 -38 -6 4 -8 3 -4 -4 9 -15 -118 -97 -200
-129 -66 -25 -81 -27 -309 -34 -357 -10 -474 -43 -656 -187 -47 -37 -117 -84
-155 -104 -83 -43 -288 -111 -400 -132 -227 -42 -553 -45 -812 -7 -126 19
-355 74 -377 90 -5 4 -39 18 -75 30 -104 37 -233 108 -296 163 -104 90 -332
190 -584 253 -314 79 -482 201 -605 438 -12 22 -26 36 -35 35 -8 -2 -35 -32
-60 -68 -33 -48 -46 -60 -48 -46 -5 24 16 210 29 260 6 21 8 45 5 52 -9 23
-60 -8 -140 -85 -42 -40 -66 -58 -63 -46 3 11 9 36 12 55 23 121 98 328 124
344 16 10 14 23 -5 30 -8 3 -27 -3 -42 -13 -74 -53 -242 -148 -242 -138 0 7
38 89 84 182 129 261 349 594 512 774 l57 62 57 -109 c31 -60 67 -124 81 -143
58 -83 189 -216 279 -284 53 -40 100 -83 103 -95 7 -28 27 -17 27 15 0 13 4
26 9 29 4 3 14 27 21 53 33 119 53 149 229 327 178 181 223 244 256 358 16 56
14 82 -10 140 -5 13 4 18 49 29 43 9 56 16 56 31 0 22 -9 22 -77 4 -52 -14
-53 -14 -115 19 -35 18 -103 45 -152 59 -49 14 -91 28 -94 30 -12 12 283 80
443 102 189 26 495 26 675 -1z m-1582 -188 c7 -8 7 -18 2 -27 -8 -13 -11 -12
-24 5 -22 30 -1 50 22 22z m-60 -51 c-2 -16 -17 -25 -61 -40 -95 -29 -105 12
-13 53 50 21 78 17 74 -13z"/>
<path d="M5710 6203 c-62 -6 -68 -15 -36 -64 l28 -41 181 5 c172 4 182 6 185
24 2 13 -10 32 -33 52 l-36 31 -122 -2 c-67 -1 -142 -3 -167 -5z m293 -41 c17
-19 14 -19 -135 -25 -135 -5 -153 -4 -165 11 -7 9 -13 20 -13 23 0 3 67 6 148
8 135 2 149 0 165 -17z"/>
<path d="M5684 6033 c-59 -65 -52 -68 141 -68 l170 0 37 40 c56 60 45 65 -149
65 l-165 0 -34 -37z m321 -13 c-16 -18 -31 -20 -162 -20 -78 0 -143 4 -143 8
0 26 30 32 174 32 148 0 149 0 131 -20z"/>
<path d="M5640 5907 c0 -6 17 -31 38 -54 l38 -41 163 -1 c197 -2 206 2 155 65
l-36 44 -179 0 c-137 0 -179 -3 -179 -13z m360 -40 l18 -22 -145 -3 c-139 -2
-147 -1 -170 19 -12 13 -23 27 -23 32 0 5 62 6 151 3 141 -6 152 -8 169 -29z"/>
<path d="M3466 6201 c-27 -3 -51 -11 -53 -17 -2 -6 6 -23 18 -38 l22 -28 131
5 c146 6 161 14 106 61 -28 23 -39 26 -103 24 -40 0 -94 -4 -121 -7z m204 -31
c25 -15 8 -19 -104 -21 -91 -1 -110 1 -118 15 -8 14 2 16 99 16 59 0 115 -4
123 -10z"/>
<path d="M3434 6075 c-43 -43 -30 -50 108 -53 l126 -3 26 32 c14 17 24 35 20
40 -3 5 -61 9 -130 9 -120 0 -126 -1 -150 -25z m236 -10 c-10 -12 -36 -15
-116 -15 -95 0 -116 5 -97 23 3 4 56 7 116 7 96 0 108 -2 97 -15z"/>
<path d="M3403 5984 c-3 -9 6 -27 23 -45 l28 -29 127 0 c70 0 130 4 133 8 3 5
-10 25 -28 45 l-34 37 -121 0 c-101 0 -123 -3 -128 -16z m262 -34 c18 -20 17
-20 -91 -20 -104 0 -134 7 -134 32 0 4 47 8 103 8 91 0 106 -2 122 -20z"/>
<path d="M4375 5098 c-41 -23 -47 -66 -15 -96 25 -23 65 -18 85 11 22 31 18
53 -11 76 -31 24 -32 24 -59 9z m42 -44 c7 -20 -17 -37 -34 -23 -15 13 -6 39
13 39 8 0 17 -7 21 -16z"/>
<path d="M7105 4969 c7 -16 204 -113 212 -105 15 15 -15 41 -84 72 -91 42
-136 53 -128 33z"/>
<path d="M2778 4893 c-34 -37 -68 -94 -68 -115 0 -32 18 -19 48 35 17 30 42
61 56 70 14 10 26 22 26 27 0 20 -37 9 -62 -17z"/>
<path d="M4120 4870 c-24 -24 -25 -48 -4 -78 30 -43 104 -13 104 41 0 51 -63
74 -100 37z m60 -35 c0 -21 -30 -31 -40 -14 -11 17 -3 29 21 29 10 0 19 -7 19
-15z"/>
<path d="M4408 4779 c-24 -14 -23 -64 2 -89 24 -24 38 -25 68 -4 25 17 31 71
10 92 -15 15 -57 15 -80 1z m56 -28 c9 -14 -4 -41 -19 -41 -18 0 -28 17 -21
35 6 17 32 20 40 6z"/>
<path d="M3529 4728 c-40 -55 -53 -88 -40 -101 6 -6 12 -9 14 -6 1 2 19 30 40
62 20 31 42 57 47 57 6 0 10 7 10 15 0 30 -40 15 -71 -27z"/>
<path d="M2754 4099 c-3 -6 -2 -14 2 -19 5 -5 106 -20 224 -35 118 -14 323
-42 455 -60 132 -19 472 -64 755 -100 283 -36 592 -77 685 -90 134 -20 677
-90 1318 -172 39 -5 47 -3 47 10 0 19 0 19 -270 52 -113 14 -261 34 -330 45
-69 11 -341 47 -605 80 -583 74 -753 96 -870 115 -49 8 -254 35 -455 60 -375
47 -874 112 -922 120 -15 3 -30 0 -34 -6z"/>
<path d="M7490 4046 c0 -10 99 -106 109 -106 31 0 -15 72 -59 95 -28 15 -50
19 -50 11z"/>
<path d="M4480 2831 c0 -15 10 -23 43 -31 23 -6 58 -16 77 -22 55 -16 382 -23
409 -8 13 6 21 14 18 16 -2 2 -89 6 -193 7 -188 4 -225 9 -340 54 -9 3 -14 -2
-14 -16z"/>
<path d="M5455 1889 c-12 -18 5 -26 62 -32 83 -9 254 -61 356 -109 86 -41 105
-44 93 -13 -18 47 -490 189 -511 154z"/>
<path d="M3979 958 c-40 -51 -89 -137 -89 -158 0 -27 29 -4 59 48 19 31 47 73
63 93 28 37 37 69 18 69 -5 0 -28 -23 -51 -52z"/>
<path d="M6020 896 c0 -10 9 -16 21 -16 24 0 21 23 -4 28 -10 2 -17 -3 -17
-12z"/>
<path d="M6700 161 c0 -5 5 -13 11 -17 7 -4 9 -29 4 -75 -7 -66 -6 -69 14 -69
21 0 22 4 19 82 -3 77 -5 83 -25 86 -13 2 -23 -1 -23 -7z"/>
<path d="M6616 143 c-3 -3 -6 -37 -6 -75 0 -54 3 -68 15 -68 12 0 15 14 15 69
0 65 -8 90 -24 74z"/>
</g>
</svg>
